<?xml version="1.0" encoding="UTF-8" standalone="no" ?>
<!DOCTYPE svg PUBLIC "-//W3C//DTD SVG 1.1//EN" "http://www.w3.org/Graphics/SVG/1.1/DTD/svg11.dtd">
<svg xmlns="http://www.w3.org/2000/svg" xmlns:xlink="http://www.w3.org/1999/xlink" version="1.1" width="760" height="300" viewBox="0 0 760 300" xml:space="preserve">
<desc>Created with Fabric.js 5.2.4</desc>
<defs>
</defs>
<g transform="matrix(1 0 0 1 380 150)" id="20829390-81aa-4603-9bcf-c89d148b8772"  >
<rect style="stroke: none; stroke-width: 1; stroke-dasharray: none; stroke-linecap: butt; stroke-dashoffset: 0; stroke-linejoin: miter; stroke-miterlimit: 4; fill: rgb(255,255,255); fill-rule: nonzero; opacity: 1; visibility: hidden;" vector-effect="non-scaling-stroke"  x="-380" y="-150" rx="0" ry="0" width="760" height="300" />
</g>
<g transform="matrix(Infinity NaN NaN Infinity 0 0)" id="7d4a43b5-9b60-4436-aebc-6900fb340d87"  >
</g>
<g transform="matrix(1 0 0 1 149.17 39.03)"  >
<polygon style="stroke: none; stroke-width: 1; stroke-dasharray: none; stroke-linecap: butt; stroke-dashoffset: 0; stroke-linejoin: miter; stroke-miterlimit: 4; fill: rgb(0,132,69); fill-rule: nonzero; opacity: 1;" vector-effect="non-scaling-stroke"  points="0,-19.82 -34.32,0 0,19.82 34.32,0 " />
</g>
<g transform="matrix(1 0 0 1 111.04 61.05)"  >
<polygon style="stroke: none; stroke-width: 1; stroke-dasharray: none; stroke-linecap: butt; stroke-dashoffset: 0; stroke-linejoin: miter; stroke-miterlimit: 4; fill: rgb(0,132,69); fill-rule: nonzero; opacity: 1;" vector-effect="non-scaling-stroke"  points="0,-19.82 -34.32,0 0,19.82 34.32,0 " />
</g>
<g transform="matrix(1 0 0 1 187.31 61.05)"  >
<polygon style="stroke: none; stroke-width: 1; stroke-dasharray: none; stroke-linecap: butt; stroke-dashoffset: 0; stroke-linejoin: miter; stroke-miterlimit: 4; fill: rgb(0,132,69); fill-rule: nonzero; opacity: 1;" vector-effect="non-scaling-stroke"  points="0,-19.82 -34.32,0 0,19.82 34.32,0 " />
</g>
<g transform="matrix(1 0 0 1 225.44 83.07)"  >
<polygon style="stroke: none; stroke-width: 1; stroke-dasharray: none; stroke-linecap: butt; stroke-dashoffset: 0; stroke-linejoin: miter; stroke-miterlimit: 4; fill: rgb(0,132,69); fill-rule: nonzero; opacity: 1;" vector-effect="non-scaling-stroke"  points="0,-19.82 -34.32,0 0,19.82 34.32,0 " />
</g>
<g transform="matrix(1 0 0 1 72.9 83.07)"  >
<polygon style="stroke: none; stroke-width: 1; stroke-dasharray: none; stroke-linecap: butt; stroke-dashoffset: 0; stroke-linejoin: miter; stroke-miterlimit: 4; fill: rgb(0,132,69); fill-rule: nonzero; opacity: 1;" vector-effect="non-scaling-stroke"  points="0,-19.82 -34.32,0 0,19.82 34.32,0 " />
</g>
<g transform="matrix(1 0 0 1 53.84 204.16)"  >
<polygon style="stroke: none; stroke-width: 1; stroke-dasharray: none; stroke-linecap: butt; stroke-dashoffset: 0; stroke-linejoin: miter; stroke-miterlimit: 4; fill: rgb(195,221,137); fill-rule: nonzero; opacity: 1;" vector-effect="non-scaling-stroke"  points="-17.16,9.91 17.16,29.72 17.16,-9.91 -17.16,-29.72 " />
</g>
<g transform="matrix(1 0 0 1 91.97 226.18)"  >
<polygon style="stroke: none; stroke-width: 1; stroke-dasharray: none; stroke-linecap: butt; stroke-dashoffset: 0; stroke-linejoin: miter; stroke-miterlimit: 4; fill: rgb(195,221,137); fill-rule: nonzero; opacity: 1;" vector-effect="non-scaling-stroke"  points="-17.16,9.91 17.16,29.72 17.16,-9.91 -17.16,-29.72 " />
</g>
<g transform="matrix(1 0 0 1 53.84 160.13)"  >
<polygon style="stroke: none; stroke-width: 1; stroke-dasharray: none; stroke-linecap: butt; stroke-dashoffset: 0; stroke-linejoin: miter; stroke-miterlimit: 4; fill: rgb(195,221,137); fill-rule: nonzero; opacity: 1;" vector-effect="non-scaling-stroke"  points="-17.16,9.91 17.16,29.72 17.16,-9.91 -17.16,-29.72 " />
</g>
<g transform="matrix(1 0 0 1 53.84 116.09)"  >
<polygon style="stroke: none; stroke-width: 1; stroke-dasharray: none; stroke-linecap: butt; stroke-dashoffset: 0; stroke-linejoin: miter; stroke-miterlimit: 4; fill: rgb(195,221,137); fill-rule: nonzero; opacity: 1;" vector-effect="non-scaling-stroke"  points="-17.16,9.91 17.16,29.72 17.16,-9.91 -17.16,-29.72 " />
</g>
<g transform="matrix(1 0 0 1 130.11 248.2)"  >
<polygon style="stroke: none; stroke-width: 1; stroke-dasharray: none; stroke-linecap: butt; stroke-dashoffset: 0; stroke-linejoin: miter; stroke-miterlimit: 4; fill: rgb(195,221,137); fill-rule: nonzero; opacity: 1;" vector-effect="non-scaling-stroke"  points="-17.16,9.91 17.16,29.72 17.16,-9.91 -17.16,-29.72 " />
</g>
<g transform="matrix(1 0 0 1 244.51 204.16)"  >
<polygon style="stroke: none; stroke-width: 1; stroke-dasharray: none; stroke-linecap: butt; stroke-dashoffset: 0; stroke-linejoin: miter; stroke-miterlimit: 4; fill: rgb(31,62,124); fill-rule: nonzero; opacity: 1;" vector-effect="non-scaling-stroke"  points="17.16,9.91 -17.16,29.72 -17.16,-9.91 17.16,-29.72 " />
</g>
<g transform="matrix(1 0 0 1 206.38 226.18)"  >
<polygon style="stroke: none; stroke-width: 1; stroke-dasharray: none; stroke-linecap: butt; stroke-dashoffset: 0; stroke-linejoin: miter; stroke-miterlimit: 4; fill: rgb(31,62,124); fill-rule: nonzero; opacity: 1;" vector-effect="non-scaling-stroke"  points="17.16,9.91 -17.16,29.72 -17.16,-9.91 17.16,-29.72 " />
</g>
<g transform="matrix(1 0 0 1 244.51 160.13)"  >
<polygon style="stroke: none; stroke-width: 1; stroke-dasharray: none; stroke-linecap: butt; stroke-dashoffset: 0; stroke-linejoin: miter; stroke-miterlimit: 4; fill: rgb(31,62,124); fill-rule: nonzero; opacity: 1;" vector-effect="non-scaling-stroke"  points="17.16,9.91 -17.16,29.72 -17.16,-9.91 17.16,-29.72 " />
</g>
<g transform="matrix(1 0 0 1 244.51 116.09)"  >
<polygon style="stroke: none; stroke-width: 1; stroke-dasharray: none; stroke-linecap: butt; stroke-dashoffset: 0; stroke-linejoin: miter; stroke-miterlimit: 4; fill: rgb(31,62,124); fill-rule: nonzero; opacity: 1;" vector-effect="non-scaling-stroke"  points="17.16,9.91 -17.16,29.72 -17.16,-9.91 17.16,-29.72 " />
</g>
<g transform="matrix(1 0 0 1 168.24 248.2)"  >
<polygon style="stroke: none; stroke-width: 1; stroke-dasharray: none; stroke-linecap: butt; stroke-dashoffset: 0; stroke-linejoin: miter; stroke-miterlimit: 4; fill: rgb(31,62,124); fill-rule: nonzero; opacity: 1;" vector-effect="non-scaling-stroke"  points="17.16,9.91 -17.16,29.72 -17.16,-9.91 17.16,-29.72 " />
</g>
<g transform="matrix(1 0 0 1 149.17 215.17)"  >
<polygon style="stroke: none; stroke-width: 1; stroke-dasharray: none; stroke-linecap: butt; stroke-dashoffset: 0; stroke-linejoin: miter; stroke-miterlimit: 4; fill: rgb(0,132,69); fill-rule: nonzero; opacity: 1;" vector-effect="non-scaling-stroke"  points="0,19.82 34.32,0 0,-19.82 -34.32,0 " />
</g>
<g transform="matrix(1 0 0 1 187.31 193.15)"  >
<polygon style="stroke: none; stroke-width: 1; stroke-dasharray: none; stroke-linecap: butt; stroke-dashoffset: 0; stroke-linejoin: miter; stroke-miterlimit: 4; fill: rgb(0,132,69); fill-rule: nonzero; opacity: 1;" vector-effect="non-scaling-stroke"  points="0,19.82 34.32,0 0,-19.82 -34.32,0 " />
</g>
<g transform="matrix(1 0 0 1 111.04 193.15)"  >
<polygon style="stroke: none; stroke-width: 1; stroke-dasharray: none; stroke-linecap: butt; stroke-dashoffset: 0; stroke-linejoin: miter; stroke-miterlimit: 4; fill: rgb(0,132,69); fill-rule: nonzero; opacity: 1;" vector-effect="non-scaling-stroke"  points="0,19.82 34.32,0 0,-19.82 -34.32,0 " />
</g>
<g transform="matrix(1 0 0 1 206.38 116.09)"  >
<polygon style="stroke: none; stroke-width: 1; stroke-dasharray: none; stroke-linecap: butt; stroke-dashoffset: 0; stroke-linejoin: miter; stroke-miterlimit: 4; fill: rgb(195,221,137); fill-rule: nonzero; opacity: 1;" vector-effect="non-scaling-stroke"  points="17.16,-9.91 -17.16,-29.72 -17.16,9.91 17.16,29.72 " />
</g>
<g transform="matrix(1 0 0 1 168.24 94.08)"  >
<polygon style="stroke: none; stroke-width: 1; stroke-dasharray: none; stroke-linecap: butt; stroke-dashoffset: 0; stroke-linejoin: miter; stroke-miterlimit: 4; fill: rgb(195,221,137); fill-rule: nonzero; opacity: 1;" vector-effect="non-scaling-stroke"  points="17.16,-9.91 -17.16,-29.72 -17.16,9.91 17.16,29.72 " />
</g>
<g transform="matrix(1 0 0 1 206.38 160.13)"  >
<polygon style="stroke: none; stroke-width: 1; stroke-dasharray: none; stroke-linecap: butt; stroke-dashoffset: 0; stroke-linejoin: miter; stroke-miterlimit: 4; fill: rgb(195,221,137); fill-rule: nonzero; opacity: 1;" vector-effect="non-scaling-stroke"  points="17.16,-9.91 -17.16,-29.72 -17.16,9.91 17.16,29.72 " />
</g>
<g transform="matrix(1 0 0 1 91.97 116.09)"  >
<polygon style="stroke: none; stroke-width: 1; stroke-dasharray: none; stroke-linecap: butt; stroke-dashoffset: 0; stroke-linejoin: miter; stroke-miterlimit: 4; fill: rgb(31,62,124); fill-rule: nonzero; opacity: 1;" vector-effect="non-scaling-stroke"  points="-17.16,-9.91 17.16,-29.72 17.16,9.91 -17.16,29.72 " />
</g>
<g transform="matrix(1 0 0 1 130.11 94.08)"  >
<polygon style="stroke: none; stroke-width: 1; stroke-dasharray: none; stroke-linecap: butt; stroke-dashoffset: 0; stroke-linejoin: miter; stroke-miterlimit: 4; fill: rgb(31,62,124); fill-rule: nonzero; opacity: 1;" vector-effect="non-scaling-stroke"  points="-17.16,-9.91 17.16,-29.72 17.16,9.91 -17.16,29.72 " />
</g>
<g transform="matrix(1 0 0 1 91.97 160.13)"  >
<polygon style="stroke: none; stroke-width: 1; stroke-dasharray: none; stroke-linecap: butt; stroke-dashoffset: 0; stroke-linejoin: miter; stroke-miterlimit: 4; fill: rgb(31,62,124); fill-rule: nonzero; opacity: 1;" vector-effect="non-scaling-stroke"  points="-17.16,-9.91 17.16,-29.72 17.16,9.91 -17.16,29.72 " />
</g>
<g transform="matrix(1 0 0 1 168.24 160.13)"  >
<polygon style="stroke: none; stroke-width: 1; stroke-dasharray: none; stroke-linecap: butt; stroke-dashoffset: 0; stroke-linejoin: miter; stroke-miterlimit: 4; fill: rgb(31,62,124); fill-rule: nonzero; opacity: 1;" vector-effect="non-scaling-stroke"  points="17.16,9.91 17.16,-29.72 -17.16,-9.91 -17.16,29.72 " />
</g>
<g transform="matrix(1 0 0 1 130.1 160.13)"  >
<polygon style="stroke: none; stroke-width: 1; stroke-dasharray: none; stroke-linecap: butt; stroke-dashoffset: 0; stroke-linejoin: miter; stroke-miterlimit: 4; fill: rgb(195,221,137); fill-rule: nonzero; opacity: 1;" vector-effect="non-scaling-stroke"  points="-17.16,9.91 17.16,29.72 17.16,-9.91 -17.16,-29.72 " />
</g>
<g transform="matrix(1 0 0 1 149.17 127.1)"  >
<polygon style="stroke: none; stroke-width: 1; stroke-dasharray: none; stroke-linecap: butt; stroke-dashoffset: 0; stroke-linejoin: miter; stroke-miterlimit: 4; fill: rgb(0,132,69); fill-rule: nonzero; opacity: 1;" vector-effect="non-scaling-stroke"  points="0,-19.82 -34.32,0 0,19.82 34.32,0 " />
</g>
<g transform="matrix(1 0 0 1 358.66 147.94)"  >
<path style="stroke: none; stroke-width: 1; stroke-dasharray: none; stroke-linecap: butt; stroke-dashoffset: 0; stroke-linejoin: miter; stroke-miterlimit: 4; fill: rgb(255,255,255); fill-rule: nonzero; opacity: 1;" vector-effect="non-scaling-stroke"  transform=" translate(-578.24, -149.99)" d="M 565.453 86.525 L 591.021 86.525 L 645.0409999999999 213.46300000000002 L 616.049 213.46300000000002 L 604.526 185.193 L 551.23 185.193 L 539.705 213.46300000000002 L 511.43500000000006 213.46300000000002 L 565.453 86.525 z M 594.621 160.705 L 577.875 119.83500000000001 L 561.131 160.705 L 594.621 160.705 z" stroke-linecap="round" />
</g>
<g transform="matrix(1 0 0 1 476.05 163.34)"  >
<path style="stroke: none; stroke-width: 1; stroke-dasharray: none; stroke-linecap: butt; stroke-dashoffset: 0; stroke-linejoin: miter; stroke-miterlimit: 4; fill: rgb(255,255,255); fill-rule: nonzero; opacity: 1;" vector-effect="non-scaling-stroke"  transform=" translate(-695.62, -165.39)" d="M 643.408 165.75 L 643.408 165.389 C 643.408 137.66000000000003 665.732 115.155 695.804 115.155 C 725.6949999999999 115.155 747.837 137.3 747.837 165.03 L 747.837 165.389 C 747.837 193.118 725.513 215.625 695.442 215.625 C 665.557 215.625 643.408 193.479 643.408 165.75 z M 720.832 165.75 L 720.832 165.389 C 720.832 151.166 710.566 138.74200000000002 695.443 138.74200000000002 C 679.775 138.74200000000002 670.418 150.80700000000002 670.418 165.03000000000003 L 670.418 165.38900000000004 C 670.418 179.61700000000005 680.682 192.03500000000003 695.8050000000001 192.03500000000003 C 711.471 192.035 720.832 179.975 720.832 165.75 z" stroke-linecap="round" />
</g>
<g transform="matrix(1 0 0 1 587.32 148.39)"  >
<path style="stroke: none; stroke-width: 1; stroke-dasharray: none; stroke-linecap: butt; stroke-dashoffset: 0; stroke-linejoin: miter; stroke-miterlimit: 4; fill: rgb(255,255,255); fill-rule: nonzero; opacity: 1;" vector-effect="non-scaling-stroke"  transform=" translate(-806.89, -150.44)" d="M 757.014 87.423 L 808.5120000000001 87.423 C 838.5840000000001 87.423 856.7700000000001 105.249 856.7700000000001 130.997 L 856.7700000000001 131.358 C 856.7700000000001 160.525 834.0810000000001 175.65 805.8110000000001 175.65 L 784.7480000000002 175.65 L 784.7480000000002 213.46300000000002 L 757.0160000000002 213.46300000000002 L 757.0160000000002 87.423 L 757.014 87.423 z M 806.713 150.984 C 820.578 150.984 828.678 142.70100000000002 828.678 131.89800000000002 L 828.678 131.53900000000002 C 828.678 119.11500000000001 820.035 112.45300000000002 806.172 112.45300000000002 L 784.746 112.45300000000002 L 784.746 150.984 L 806.713 150.984 L 806.713 150.984 z" stroke-linecap="round" />
</g>
<g transform="matrix(1 0 0 1 689.04 148.39)"  >
<path style="stroke: none; stroke-width: 1; stroke-dasharray: none; stroke-linecap: butt; stroke-dashoffset: 0; stroke-linejoin: miter; stroke-miterlimit: 4; fill: rgb(255,255,255); fill-rule: nonzero; opacity: 1;" vector-effect="non-scaling-stroke"  transform=" translate(-908.62, -150.45)" d="M 858.744 195.098 L 875.1270000000001 175.473 C 886.4710000000001 184.834 898.3560000000001 190.77800000000002 912.7620000000001 190.77800000000002 C 924.104 190.77800000000002 930.9440000000001 186.276 930.9440000000001 178.89300000000003 L 930.9440000000001 178.53500000000003 C 930.9440000000001 171.51300000000003 926.628 167.91000000000003 905.557 162.51000000000002 C 880.168 156.02900000000002 863.7860000000001 149.00600000000003 863.7860000000001 123.98200000000003 L 863.7860000000001 123.62100000000002 C 863.7860000000001 100.75400000000002 882.147 85.62900000000002 907.897 85.62900000000002 C 926.264 85.62900000000002 941.9300000000001 91.38900000000002 954.7130000000001 101.65200000000002 L 940.3070000000001 122.54100000000001 C 929.1450000000001 114.799 918.1610000000002 110.11500000000001 907.5390000000001 110.11500000000001 C 896.9140000000001 110.11500000000001 891.3320000000001 114.97800000000001 891.3320000000001 121.10100000000001 L 891.3320000000001 121.46000000000001 C 891.3320000000001 129.741 896.7320000000001 132.442 918.5200000000001 138.024 C 944.0860000000001 144.684 958.4950000000001 153.866 958.4950000000001 175.837 L 958.4950000000001 176.194 C 958.4950000000001 201.225 939.4090000000001 215.26799999999997 912.2200000000001 215.26799999999997 C 893.135 215.266 873.869 208.602 858.744 195.098 z" stroke-linecap="round" />
</g>
</svg>