<svg version="1.1" viewBox="0.0 0.0 1152.0 1152.0" fill="none" stroke="none" stroke-linecap="square" stroke-miterlimit="10" xmlns:xlink="http://www.w3.org/1999/xlink" xmlns="http://www.w3.org/2000/svg"><clipPath id="p.0"><path d="m0 0l1152.0 0l0 1152.0l-1152.0 0l0 -1152.0z" clip-rule="nonzero"/></clipPath><g clip-path="url(#p.0)"><path fill="#000000" fill-opacity="0.0" d="m0 0l1152.0 0l0 1152.0l-1152.0 0z" fill-rule="evenodd"/><path fill="#000000" d="m0 576.0l0 0c0 -318.11603 257.88397 -576.0 576.0 -576.0l0 0c152.76471 0 299.27252 60.68554 407.29352 168.7065c108.020935 108.02095 168.70648 254.5288 168.70648 407.29352l0 0c0 318.11603 -257.88397 576.0 -576.0 576.0l0 0c-318.11603 0 -576.0 -257.88397 -576.0 -576.0z" fill-rule="evenodd"/><path fill="#000000" fill-opacity="0.0" d="m48.761635 98.91004l1089.3859 0l0 650.07874l-1089.3859 0z" fill-rule="evenodd"/><path fill="#00ff00" d="m180.40765 459.61816l-5.3125 22.1875l-53.437492 -201.40625l11.562492 0l47.1875 179.21875zm11.71875 -43.28125l-5.78125 21.5625l-41.40625 -157.5l11.40625 0l35.78125 135.9375zm11.71875 -44.84375l-5.9375 21.875l-29.84375 -112.96875l11.71875 0l24.0625 91.09375zm44.53125 167.65625l-11.71875 0l68.4375 -258.4375l-0.15625 -0.3125l11.875 0l0 0.3125l30.46875 105.0l27.96875 -105.3125l11.71875 0l-68.59375 258.75l-11.71875 0l-30.625 -104.84375l-27.65625 104.84375zm-23.4375 0l-11.5625 0l68.4375 -258.75l11.5625 0l-68.4375 258.75zm-23.28125 0l-11.5625 0l68.59375 -258.75l11.40625 0l-68.4375 258.75zm186.71875 0l-11.71875 0l68.4375 -258.75l11.71875 0l-68.4375 258.75zm-23.4375 0l-11.5625 0l68.4375 -258.75l11.5625 0l-68.4375 258.75zm-23.28125 0l-11.5625 0l68.59375 -258.75l11.40625 0l-68.4375 258.75zm-169.0625 -22.1875l62.65625 -236.5625l11.71875 0l-68.59375 258.75l-11.71875 0l-68.43749 -258.75l11.71875 0l62.656242 236.5625zm109.375 -104.6875l30.3125 105.625l5.9375 -22.34375l-30.46875 -105.3125l-5.78125 22.03125zm11.5625 -44.0625l30.46875 105.3125l5.9375 -22.03125l-30.46875 -105.46875l-5.9375 22.1875zm11.5625 -43.75l30.625 105.3125l5.78125 -22.1875l-30.3125 -105.625l-6.09375 22.5zm234.6875 135.15625l-5.3125 22.1875l-53.4375 -201.40625l11.5625 0l47.1875 179.21875zm11.71875 -43.28125l-5.78125 21.5625l-41.40625 -157.5l11.40625 0l35.78125 135.9375zm11.71875 -44.84375l-5.9375 21.875l-29.84375 -112.96875l11.71875 0l24.0625 91.09375zm44.53125 167.65625l-11.71875 0l68.4375 -258.4375l-0.15625 -0.3125l11.875 0l0 0.3125l30.46875 105.0l27.96875 -105.3125l11.71875 0l-68.59375 258.75l-11.71875 0l-30.625 -104.84375l-27.65625 104.84375zm-23.4375 0l-11.5625 0l68.4375 -258.75l11.5625 0l-68.4375 258.75zm-23.28125 0l-11.5625 0l68.59375 -258.75l11.40625 0l-68.4375 258.75zm186.71875 0l-11.71875 0l68.4375 -258.75l11.71875 0l-68.4375 258.75zm-23.4375 0l-11.5625 0l68.4375 -258.75l11.5625 0l-68.4375 258.75zm-23.28125 0l-11.5625 0l68.59375 -258.75l11.40625 0l-68.4375 258.75zm-169.0625 -22.1875l62.65625 -236.5625l11.71875 0l-68.59375 258.75l-11.71875 0l-68.4375 -258.75l11.71875 0l62.65625 236.5625zm109.375 -104.6875l30.3125 105.625l5.9375 -22.34375l-30.46875 -105.3125l-5.78125 22.03125zm11.5625 -44.0625l30.46875 105.3125l5.9375 -22.03125l-30.46875 -105.46875l-5.9375 22.1875zm11.5625 -43.75l30.625 105.3125l5.78125 -22.1875l-30.3125 -105.625l-6.09375 22.5z" fill-rule="nonzero"/><path fill="#00ff00" d="m924.9389 416.6494l65.3125 0q16.09375 0 27.265625 -10.859375q11.171814 -10.859375 11.171814 -30.703125q0 -14.84375 -11.718689 -26.640625q-11.71875 -11.796875 -26.71875 -11.796875l-96.5625 0l0 202.5l-11.25 0l0 -213.75l107.8125 0q19.6875 0 34.68744 15.15625q15.0 15.15625 15.0 34.53125q0 23.90625 -14.53125 38.359375q-14.531189 14.453125 -35.15619 14.453125l-65.3125 0l0 -11.25zm0 22.5l65.3125 0q16.25 0 30.078125 -7.890625q13.828064 -7.890625 22.343689 -22.734375q8.515625 -14.84375 8.515625 -33.4375q0 -24.0625 -18.359375 -42.5q-18.359314 -18.4375 -42.578064 -18.4375l-119.0625 0l0 225.0l-11.25 0l0 -236.25l130.3125 0q18.90625 0 35.62494 10.0q16.71875 10.0 26.640625 26.71875q9.921875 16.71875 9.921875 35.46875q0 21.25 -10.0 38.671875q-10.0 17.421875 -26.484375 27.03125q-16.484314 9.609375 -35.703064 9.609375l-65.3125 0l0 -11.25zm0 22.5l65.3125 0q16.71875 0 32.03125 -6.640625q15.312439 -6.640625 26.640564 -17.96875q11.328125 -11.328125 18.046875 -27.5q6.71875 -16.171875 6.71875 -34.453125q0 -21.875 -11.40625 -41.171875q-11.40625 -19.296875 -30.703125 -30.78125q-19.296814 -11.484375 -41.328064 -11.484375l-141.5625 0l0 247.5l-11.25 0l0 -258.75l152.8125 0q25.0 0 46.87494 13.046875q21.875 13.046875 34.84375 34.921875q12.96875 21.875 12.96875 46.71875q0 22.1875 -7.65625 40.859375q-7.65625 18.671875 -20.625 31.015625q-12.96875 12.34375 -30.15625 19.140625q-17.187439 6.796875 -36.24994 6.796875l-65.3125 0l0 -11.25zm-8.75 77.5l-11.25 0l0 -191.25l85.3125 0q11.09375 0 19.140625 8.125q8.046875 8.125 8.046875 19.0625q0 30.3125 -27.1875 30.3125l-65.3125 0l0 -11.25l65.3125 0q7.5 0 11.71875 -4.21875q4.21875 -4.21875 4.21875 -14.84375q0 -6.875 -4.609375 -11.40625q-4.609375 -4.53125 -11.328125 -4.53125l-74.0625 0l0 180.0z" fill-rule="nonzero"/><path fill="#000000" fill-opacity="0.0" d="m107.14558 501.92126l1005.8582 0l0 650.07874l-1005.8582 0z" fill-rule="evenodd"/><path fill="#00ff00" d="m464.23636 578.15625l19.5 0l0 448.48438l-19.5 0l0 -448.48438zm-39.0 0l19.5 0l0 448.48438l-19.5 0l0 -448.48438zm-39.0 0l19.5 0l0 448.48438l-19.5 0l0 -448.48438zm-39.0 0l19.5 0l0 448.48438l-19.5 0l0 -448.48438zm239.40683 19.5l0 -19.5l292.49994 0l0 19.5l-292.49994 0zm0 38.984375l0 -19.5l292.49994 0l0 19.5l-292.49994 0zm0 39.0l0 -19.5l292.49994 0l0 19.5l-78.0 0l0 351.0l-19.5 0l0 -351.0l-19.5 0l0 351.0l-19.5 0l0 -351.0l-19.5 0l0 351.0l-19.5 0l0 -351.0l-19.5 0l0 351.0l-19.5 0l0 -351.0l-77.99994 0z" fill-rule="nonzero"/></g></svg>