<?xml version="1.0" encoding="UTF-8"?>
<svg version="1.1" xmlns="http://www.w3.org/2000/svg" width="386" height="386">
<path d="M0 0 C0.94242554 -0.01111313 1.88485107 -0.02222626 2.85583496 -0.03367615 C5.88062574 -0.0605732 8.90478252 -0.06706536 11.9296875 -0.06640625 C12.96180359 -0.06747375 13.99391968 -0.06854126 15.05731201 -0.06964111 C30.61979635 -0.04634443 44.81757003 0.91578406 59.8046875 5.37109375 C61.52494491 5.82578446 63.24631353 6.27629116 64.96875 6.72265625 C90.16441484 13.49242966 113.56210658 26.03647032 133.8046875 42.37109375 C134.7004248 43.09329102 134.7004248 43.09329102 135.61425781 43.83007812 C173.62651053 74.73743391 197.5029382 118.04046743 204.8046875 166.37109375 C204.9797583 167.45245605 205.1548291 168.53381836 205.33520508 169.64794922 C205.8299028 173.57105908 205.98311632 177.42799114 206.0078125 181.375 C206.01840195 182.5027459 206.01840195 182.5027459 206.02920532 183.65327454 C206.24810845 213.86948759 203.33618321 242.45589749 190.8046875 270.37109375 C190.51899902 271.03238281 190.23331055 271.69367188 189.93896484 272.375 C180.40760536 294.414016 166.32121158 313.10167968 149.8046875 330.37109375 C149.16789062 331.04914063 148.53109375 331.7271875 147.875 332.42578125 C123.53618419 357.69622638 89.61080443 374.86245421 55.6796875 382.62109375 C55.02484375 382.77223633 54.37 382.92337891 53.6953125 383.07910156 C40.24162801 385.95554086 26.82515606 386.7501364 13.1171875 386.68359375 C12.33231964 386.68177094 11.54745178 386.67994812 10.73880005 386.67807007 C-1.76722215 386.62934304 -13.93652022 386.04171269 -26.1953125 383.37109375 C-26.98566895 383.1994873 -27.77602539 383.02788086 -28.59033203 382.85107422 C-59.79871274 375.80889273 -89.17093017 361.62343196 -113.1953125 340.37109375 C-113.70900391 339.91766602 -114.22269531 339.46423828 -114.75195312 338.99707031 C-148.38143475 309.13744161 -169.96766656 270.54581162 -178.1953125 226.37109375 C-178.38077637 225.43338135 -178.56624023 224.49566895 -178.75732422 223.52954102 C-180.54484938 213.52115413 -180.59409467 203.56767025 -180.5703125 193.43359375 C-180.56943634 192.5228006 -180.56856018 191.61200745 -180.56765747 190.6736145 C-180.52378468 176.85034441 -179.80852254 163.77658953 -176.1953125 150.37109375 C-175.94861816 149.40510254 -175.70192383 148.43911133 -175.44775391 147.44384766 C-171.93313744 133.81473027 -167.45516655 120.9748462 -161.1953125 108.37109375 C-160.84210938 107.64841309 -160.48890625 106.92573242 -160.125 106.18115234 C-153.1023857 91.92436117 -144.25822361 79.65311845 -134.1953125 67.37109375 C-133.50179687 66.45457031 -132.80828125 65.53804688 -132.09375 64.59375 C-131.46726563 63.86027344 -130.84078125 63.12679687 -130.1953125 62.37109375 C-129.5353125 62.37109375 -128.8753125 62.37109375 -128.1953125 62.37109375 C-127.92541504 61.77361328 -127.65551758 61.17613281 -127.37744141 60.56054688 C-126.19867512 58.37732174 -125.07118503 57.03645404 -123.28125 55.33984375 C-122.69359863 54.78264648 -122.10594727 54.22544922 -121.50048828 53.65136719 C-120.86353027 53.06387695 -120.22657227 52.47638672 -119.5703125 51.87109375 C-118.90370605 51.25524414 -118.23709961 50.63939453 -117.55029297 50.00488281 C-90.79621195 25.68299098 -57.88622401 9.70116886 -22.44500732 2.82142639 C-20.94570798 2.52130416 -19.44996343 2.20284046 -17.95845032 1.8661499 C-11.918934 0.54187237 -6.17353342 0.03931533 0 0 Z M-5.1953125 28.37109375 C-5.95070312 28.79519531 -6.70609375 29.21929688 -7.484375 29.65625 C-18.21626308 36.27609161 -25.57246988 45.83696577 -32.1953125 56.37109375 C-32.57187988 56.96776855 -32.94844727 57.56444336 -33.33642578 58.17919922 C-40.23146547 69.29425039 -44.84717014 81.06780691 -49.1953125 93.37109375 C-43.61158546 98.95482079 -22.97593175 96.63597041 -15.35314941 96.64898682 C-13.58178601 96.64540578 -11.81042359 96.6413035 -10.0390625 96.63671875 C-8.15734813 96.63807182 -6.2756341 96.64001763 -4.3939209 96.64251709 C-0.48116677 96.64543823 3.43149503 96.64126905 7.34423828 96.63183594 C12.3058228 96.62044332 17.26719077 96.62701915 22.2287674 96.63898087 C26.10517953 96.64628167 29.98154213 96.64387427 33.85795593 96.63872528 C35.6851962 96.63741138 37.51244129 96.63895502 39.3396759 96.64368439 C51.30076407 96.66786528 62.94502121 95.94372917 74.8046875 94.37109375 C72.93321861 86.77129185 70.50041125 79.89919329 67.0546875 72.87109375 C66.6107666 71.95545654 66.1668457 71.03981934 65.70947266 70.09643555 C57.09224244 52.5768118 44.58056295 33.19619018 25.7421875 25.49609375 C15.62118383 22.53081724 3.9979217 23.19385133 -5.1953125 28.37109375 Z M-110.5078125 75.43359375 C-113.42031699 77.95346187 -113.42031699 77.95346187 -113.1953125 80.37109375 C-100.08544631 84.62482693 -86.94224212 88.85041569 -73.1953125 90.37109375 C-70.27185842 85.95026075 -68.55692983 81.29541811 -66.6953125 76.37109375 C-60.82557115 61.29282068 -53.3598696 46.72695 -44.1953125 33.37109375 C-66.44278011 33.37109375 -95.65392284 61.02891446 -110.5078125 75.43359375 Z M69.8046875 33.37109375 C70.24039063 34.04914062 70.67609375 34.7271875 71.125 35.42578125 C71.72054687 36.35648438 72.31609375 37.2871875 72.9296875 38.24609375 C73.50976562 39.15101562 74.08984375 40.0559375 74.6875 40.98828125 C75.38617188 42.10460938 76.08484375 43.2209375 76.8046875 44.37109375 C77.26117676 45.09530518 77.71766602 45.8195166 78.18798828 46.56567383 C82.11924404 52.93502131 85.35317221 59.49072299 88.4296875 66.30859375 C88.89375 67.31599609 89.3578125 68.32339844 89.8359375 69.36132812 C92.51733151 75.25054802 94.82856039 81.10165563 96.72802734 87.29125977 C97.6057169 89.49243926 97.6057169 89.49243926 99.58227539 90.2409668 C102.35642985 90.40339944 104.57822455 89.93200798 107.27734375 89.26171875 C108.34275391 89.00132813 109.40816406 88.7409375 110.50585938 88.47265625 C111.61509766 88.19164062 112.72433594 87.910625 113.8671875 87.62109375 C115.49043945 87.22277344 115.49043945 87.22277344 117.14648438 86.81640625 C124.06201874 85.10722799 130.94106268 83.27741767 137.8046875 81.37109375 C138.2199414 77.41079614 138.2199414 77.41079614 136.00390625 75.109375 C121.82683287 61.41736478 91.76292201 33.37109375 69.8046875 33.37109375 Z M-129.1953125 100.37109375 C-145.63442366 116.90903725 -155.90823388 152.1338836 -156.23117065 174.89886475 C-156.22691071 175.78656555 -156.22265076 176.67426636 -156.21826172 177.58886719 C-156.21494843 178.48555115 -156.21163513 179.38223511 -156.20822144 180.30609131 C-156.20396149 180.98754211 -156.19970154 181.66899292 -156.1953125 182.37109375 C-121.67819746 182.65435483 -121.67819746 182.65435483 -87.1953125 181.37109375 C-87.09041504 180.08368286 -87.09041504 180.08368286 -86.98339844 178.77026367 C-85.46477592 160.42593849 -83.4940388 142.30078997 -80.60449219 124.11328125 C-80.02182601 120.20844442 -79.5962313 116.29846156 -79.1953125 112.37109375 C-79.87819336 112.22075684 -80.56107422 112.07041992 -81.26464844 111.91552734 C-93.99647381 109.09405247 -106.62486719 106.18654873 -119.04980469 102.20068359 C-120.18530762 101.84031006 -120.18530762 101.84031006 -121.34375 101.47265625 C-121.99520996 101.25947754 -122.64666992 101.04629883 -123.31787109 100.82666016 C-125.52119146 100.21388722 -125.52119146 100.21388722 -129.1953125 100.37109375 Z M146.05859375 101.7265625 C144.69359741 102.16246704 144.69359741 102.16246704 143.30102539 102.60717773 C142.33285889 102.92114502 141.36469238 103.2351123 140.3671875 103.55859375 C128.9757066 107.15344257 117.48882004 109.91427084 105.8046875 112.37109375 C104.32009152 116.32503032 105.25923194 119.54192878 106.109375 123.58984375 C107.65841617 131.29541552 108.76730998 138.99471787 109.68505859 146.79833984 C109.92976336 148.87173651 110.18503318 150.94364227 110.44140625 153.015625 C111.58567229 162.45311125 112.30783 171.87841682 112.8046875 181.37109375 C127.29631755 182.60992142 141.77126011 182.48513073 156.3046875 182.43359375 C158.78515534 182.42856731 161.26562418 182.42400643 163.74609375 182.41992188 C169.76564693 182.40901019 175.78516247 182.3923633 181.8046875 182.37109375 C181.8217906 180.47130459 181.83392146 178.5714703 181.84399414 176.67163086 C181.85129044 175.61366806 181.85858673 174.55570526 181.86610413 173.46568298 C181.78082846 169.16891207 181.13421383 165.12773619 180.2421875 160.93359375 C179.97547241 159.66189331 179.97547241 159.66189331 179.70336914 158.36450195 C175.65480335 140.01021681 168.61086062 122.94433255 159.8046875 106.37109375 C159.28720947 105.38665283 159.28720947 105.38665283 158.75927734 104.38232422 C157.7361945 102.51562654 157.7361945 102.51562654 155.8046875 100.37109375 C152.25516969 100.0188231 149.42055831 100.62425119 146.05859375 101.7265625 Z M-56.1953125 116.37109375 C-58.56343549 127.69480875 -60.54257132 139.00170579 -61.8828125 150.49609375 C-62.00180908 151.49366699 -62.12080566 152.49124023 -62.2434082 153.51904297 C-63.31368626 163.15077379 -63.68326991 172.64228447 -64.1953125 182.37109375 C-13.3753125 182.37109375 37.4446875 182.37109375 89.8046875 182.37109375 C89.15280482 165.19978193 89.15280482 165.19978193 87.4921875 148.18359375 C87.36465088 147.20382568 87.23711426 146.22405762 87.10571289 145.21459961 C86.20229686 138.57682962 85.08176322 131.99707515 83.7421875 125.43359375 C83.58000732 124.62833252 83.41782715 123.82307129 83.25073242 122.9934082 C82.83941749 121.10252816 82.33150934 119.23309967 81.8046875 117.37109375 C78.84027488 115.88888744 76.50942557 116.58130839 73.22265625 116.9296875 C71.76948714 117.07220432 70.31610289 117.21253866 68.86254883 117.35107422 C67.68083603 117.46391754 67.68083603 117.46391754 66.47525024 117.57904053 C25.89585814 121.33050845 -15.70761568 121.14281269 -56.1953125 116.37109375 Z M-156.1953125 204.37109375 C-156.49027322 212.09157365 -155.75658097 219.04441448 -154.0078125 226.55859375 C-153.78077637 227.55890625 -153.55374023 228.55921875 -153.31982422 229.58984375 C-150.06555751 243.60545547 -145.71743553 256.53523217 -139.1953125 269.37109375 C-138.8122998 270.1276123 -138.42928711 270.88413086 -138.03466797 271.66357422 C-136.82873665 274.03048631 -135.60954688 276.38990235 -134.3828125 278.74609375 C-133.99770508 279.49044678 -133.61259766 280.2347998 -133.21582031 281.00170898 C-131.40005331 284.83291414 -131.40005331 284.83291414 -128.1953125 287.37109375 C-126.17321277 286.94842816 -126.17321277 286.94842816 -123.8828125 286.1484375 C-122.98377197 285.85976807 -122.08473145 285.57109863 -121.15844727 285.27368164 C-119.69169556 284.79596313 -119.69169556 284.79596313 -118.1953125 284.30859375 C-105.35941825 280.24621085 -92.34384144 277.23071223 -79.1953125 274.37109375 C-79.75424885 268.79429058 -80.485909 263.25725062 -81.31640625 257.71484375 C-83.91862492 240.28346796 -86.14006308 222.9791783 -87.1953125 205.37109375 C-110.19955908 204.73490688 -133.18033519 204.18083895 -156.1953125 204.37109375 Z M-64.1953125 204.37109375 C-62.4548256 237.82641277 -62.4548256 237.82641277 -55.1953125 270.37109375 C-53.69532715 270.23477539 -53.69532715 270.23477539 -52.16503906 270.09570312 C-7.3945869 266.11475687 37.04485357 266.42293198 81.8046875 270.37109375 C86.09237093 248.04573865 88.80817542 227.29087158 89.8046875 204.37109375 C38.9846875 204.37109375 -11.8353125 204.37109375 -64.1953125 204.37109375 Z M112.8046875 205.37109375 C112.73475586 206.33072021 112.66482422 207.29034668 112.59277344 208.27905273 C111.20961545 227.019857 109.54496768 245.51696335 106.21386719 264.02978516 C105.67113177 267.13529389 105.22696124 270.24712988 104.8046875 273.37109375 C108.85586715 274.76988227 112.89458761 275.94509824 117.05859375 276.95703125 C118.24388672 277.24835938 119.42917969 277.5396875 120.65039062 277.83984375 C123.10064809 278.4372791 125.55116342 279.03365802 128.00195312 279.62890625 C135.11099907 281.37835307 142.05473246 283.33981718 148.98022461 285.72119141 C152.11977055 286.44359363 153.80097467 286.53839696 156.8046875 285.37109375 C158.55519943 283.33255089 158.55519943 283.33255089 159.85546875 280.6484375 C160.385354 279.64707764 160.91523926 278.64571777 161.46118164 277.61401367 C162.00766357 276.5232251 162.55414551 275.43243652 163.1171875 274.30859375 C163.68751709 273.18622314 164.25784668 272.06385254 164.84545898 270.9074707 C174.47670432 251.42277295 183.04454378 227.48584285 182.8046875 205.37109375 C181.0520431 203.61844935 178.59799348 204.24348971 176.21850586 204.24169922 C175.02313705 204.23854706 173.82776825 204.2353949 172.59617615 204.23214722 C171.29213333 204.23417145 169.98809052 204.23619568 168.64453125 204.23828125 C167.29749026 204.23760766 165.95044939 204.23663717 164.60340881 204.23538208 C161.77115733 204.23390419 158.93893729 204.23606021 156.10668945 204.24072266 C152.49448823 204.24638188 148.88236193 204.24316592 145.27016354 204.23715019 C142.48272654 204.2335143 139.6953069 204.23469766 136.90786934 204.23727798 C134.93385393 204.23826166 132.95983781 204.23524509 130.98582458 204.23214722 C124.83081806 204.24808366 118.88816925 204.41217286 112.8046875 205.37109375 Z M-48.1953125 292.37109375 C-45.25338336 314.2839497 -30.32185996 339.38925133 -13.1953125 353.37109375 C-3.14226765 360.50146385 6.61023429 364.44765978 19.078125 362.90234375 C27.84384093 361.19441056 34.07900495 357.06109606 40.8046875 351.37109375 C41.61679688 350.76007813 42.42890625 350.1490625 43.265625 349.51953125 C57.92256329 337.11750654 70.09289361 312.76787724 74.8046875 294.37109375 C74.3096875 293.38109375 74.3096875 293.38109375 73.8046875 292.37109375 C71.11084543 291.87571173 68.52744907 291.55184288 65.8046875 291.30859375 C64.90967529 291.22625488 64.01466309 291.14391602 63.0925293 291.05908203 C46.81199437 289.73247128 30.427958 289.6714644 14.10327148 289.4107666 C10.9253193 289.35591613 7.74790428 289.27954129 4.5703125 289.20703125 C-13.12682449 288.90553755 -30.60901378 290.58297901 -48.1953125 292.37109375 Z M98.8046875 296.37109375 C96.66446645 301.1319636 94.56793241 305.90761689 92.54296875 310.71875 C86.18642124 325.74830257 79.2663511 340.01345102 69.8046875 353.37109375 C93.61844785 350.26910092 118.12597272 328.31136161 134.8046875 312.37109375 C135.57683594 311.64664062 136.34898437 310.9221875 137.14453125 310.17578125 C139.03036151 308.53446369 139.03036151 308.53446369 138.8046875 306.37109375 C130.59735464 303.10534874 122.371761 300.95856948 113.7421875 299.12109375 C112.52080078 298.85296875 111.29941406 298.58484375 110.04101562 298.30859375 C104.47318839 296.93712013 104.47318839 296.93712013 98.8046875 296.37109375 Z M-80.75390625 297.4453125 C-81.86314453 297.70119141 -82.97238281 297.95707031 -84.11523438 298.22070312 C-85.27603516 298.49720703 -86.43683594 298.77371094 -87.6328125 299.05859375 C-88.75880859 299.31576172 -89.88480469 299.57292969 -91.04492188 299.83789062 C-98.5874106 301.60315394 -105.89192461 303.79220681 -113.1953125 306.37109375 C-109.10055713 314.93810364 -100.58749751 320.7288954 -93.1953125 326.37109375 C-92.6605127 326.78762207 -92.12571289 327.20415039 -91.57470703 327.63330078 C-77.98854632 338.18659517 -62.65106889 347.95930482 -46.1953125 353.37109375 C-45.5353125 353.04109375 -44.8753125 352.71109375 -44.1953125 352.37109375 C-44.77796875 351.57832031 -45.360625 350.78554688 -45.9609375 349.96875 C-56.79530265 334.73432422 -64.71903661 317.43571432 -71.01171875 299.87109375 C-71.59759766 298.63359375 -71.59759766 298.63359375 -72.1953125 297.37109375 C-75.72269597 296.19529926 -77.17063408 296.61470671 -80.75390625 297.4453125 Z " fill="#010101" transform="translate(180.1953125,-0.37109375)"/>
<path d="M0 0 C0.99 0.99 1.98 1.98 3 3 C-1.39242979 6.63944182 -5.86506928 9.52762595 -11 12 C-9.49650623 8.33213607 -7.36271208 6.31089607 -4.375 3.75 C-3.14910156 2.69039062 -3.14910156 2.69039062 -1.8984375 1.609375 C-1.27195312 1.07828125 -0.64546875 0.5471875 0 0 Z M-13 12 C-12.01 12.495 -12.01 12.495 -11 13 C-11.99 13.495 -11.99 13.495 -13 14 C-13 13.34 -13 12.68 -13 12 Z " fill="#090909" transform="translate(63,50)"/>
<path d="M0 0 C0.99 1.32 1.98 2.64 3 4 C1 5 -1 6 -3 7 C-3.309375 7.78375 -3.61875 8.5675 -3.9375 9.375 C-4.98373709 11.95982105 -5.92113535 13.2046169 -8 15 C-6.51194289 9.19657726 -3.40902445 4.82409121 0 0 Z " fill="#0E0B0D" transform="translate(131,40)"/>
<path d="M0 0 C0.99 0.66 1.98 1.32 3 2 C2.21625 2.763125 1.4325 3.52625 0.625 4.3125 C-2.07257717 6.90891805 -2.07257717 6.90891805 -4 10 C-4.99 10.33 -5.98 10.66 -7 11 C-5.5140084 6.40693504 -3.14985318 3.56430755 0 0 Z " fill="#0D090A" transform="translate(39,76)"/>
<path d="M0 0 C0.66 0.33 1.32 0.66 2 1 C1.01 1.99 0.02 2.98 -1 4 C-1 1 -1 1 0 0 Z M-4 3 C-2 3 -2 3 -0.375 4.5 C0.07875 4.995 0.5325 5.49 1 6 C0.67 6.66 0.34 7.32 0 8 C-1.32 8 -2.64 8 -4 8 C-4 7.34 -4 6.68 -4 6 C-4.66 5.67 -5.32 5.34 -6 5 C-5.34 4.34 -4.68 3.68 -4 3 Z " fill="#0D0B0C" transform="translate(78,37)"/>
<path d="M0 0 C0.99 0.99 1.98 1.98 3 3 C2.4225 3.061875 1.845 3.12375 1.25 3.1875 C-1.88690987 4.32027301 -3.09167504 6.34197595 -5 9 C-5 4.61031544 -2.87194899 3.23094261 0 0 Z " fill="#0E0C0D" transform="translate(46,67)"/>
</svg>
